<?xml version="1.0" encoding="iso-8859-1"?>
<!-- Generator: Adobe Illustrator 19.0.0, SVG Export Plug-In . SVG Version: 6.00 Build 0)  -->
<svg version="1.1" id="Capa_1" xmlns="http://www.w3.org/2000/svg" xmlns:xlink="http://www.w3.org/1999/xlink" x="0px" y="0px"
	 viewBox="0 0 512.001 512.001" style="enable-background:new 0 0 512.001 512.001;" xml:space="preserve">
<rect x="106.691" y="80.34" style="fill:#54E3E3;" width="298.61" height="351.32"/>
<g>
	<path style="fill:#B3B3B3;" d="M371.059,10H140.943c-18.915,0-34.248,15.334-34.248,34.248v36.09h298.612v-36.09
		C405.307,25.334,389.974,10,371.059,10z"/>
	<path style="fill:#B3B3B3;" d="M140.943,502h230.116c18.915,0,34.248-15.334,34.248-34.248v-36.09H106.695v36.09
		C106.695,486.666,122.028,502,140.943,502z"/>
</g>
<path d="M317.081,55.17c-0.65,0-1.311-0.07-1.95-0.2c-0.64-0.13-1.271-0.32-1.87-0.57s-1.19-0.56-1.729-0.92
	c-0.551-0.36-1.061-0.78-1.521-1.24s-0.88-0.97-1.24-1.52c-0.359-0.54-0.67-1.12-0.92-1.72c-0.25-0.61-0.439-1.24-0.569-1.88
	c-0.131-0.64-0.2-1.3-0.2-1.95s0.069-1.31,0.2-1.95c0.13-0.64,0.319-1.27,0.569-1.88c0.25-0.6,0.561-1.18,0.92-1.72
	c0.36-0.55,0.78-1.06,1.24-1.52s0.97-0.88,1.521-1.24c0.539-0.36,1.13-0.67,1.729-0.92s1.23-0.45,1.87-0.57
	c1.29-0.26,2.62-0.26,3.91,0c0.64,0.12,1.27,0.32,1.87,0.57s1.18,0.56,1.729,0.92c0.54,0.36,1.05,0.78,1.521,1.24
	c0.46,0.46,0.87,0.97,1.239,1.52c0.36,0.54,0.67,1.12,0.92,1.72c0.25,0.61,0.44,1.24,0.57,1.88s0.2,1.3,0.2,1.95
	c0,2.63-1.07,5.21-2.93,7.07c-0.471,0.46-0.98,0.88-1.521,1.24c-0.55,0.36-1.13,0.67-1.729,0.92c-0.601,0.25-1.23,0.44-1.87,0.57
	C318.391,55.1,317.741,55.17,317.081,55.17z"/>
<path d="M279.084,55.169h-84.167c-5.522,0-10-4.477-10-10s4.478-10,10-10h84.167c5.522,0,10,4.477,10,10
	S284.606,55.169,279.084,55.169z"/>
<path d="M269.179,476.831h-26.355c-5.522,0-10-4.477-10-10s4.478-10,10-10h26.355c5.522,0,10,4.477,10,10
	S274.701,476.831,269.179,476.831z"/>
<path d="M152.831,392.36c-0.65,0-1.311-0.07-1.95-0.2c-0.64-0.12-1.271-0.32-1.87-0.57c-0.61-0.25-1.19-0.55-1.729-0.91
	c-0.551-0.37-1.061-0.79-1.521-1.25s-0.88-0.97-1.24-1.52c-0.359-0.54-0.67-1.12-0.92-1.72c-0.25-0.61-0.439-1.24-0.569-1.88
	c-0.131-0.64-0.2-1.3-0.2-1.95s0.069-1.31,0.2-1.95c0.13-0.64,0.319-1.27,0.569-1.87c0.25-0.61,0.561-1.19,0.92-1.73
	c0.36-0.55,0.78-1.06,1.24-1.52s0.97-0.88,1.521-1.24c0.539-0.36,1.119-0.67,1.729-0.92c0.6-0.25,1.23-0.44,1.87-0.57
	c1.29-0.26,2.62-0.26,3.91,0c0.64,0.13,1.27,0.32,1.87,0.57c0.6,0.25,1.18,0.56,1.72,0.92c0.55,0.36,1.06,0.78,1.52,1.24
	s0.881,0.97,1.25,1.52c0.36,0.54,0.67,1.12,0.92,1.73c0.25,0.6,0.44,1.23,0.57,1.87c0.13,0.64,0.19,1.3,0.19,1.95
	s-0.061,1.31-0.19,1.95c-0.13,0.64-0.32,1.27-0.57,1.88c-0.25,0.6-0.56,1.18-0.92,1.72c-0.369,0.55-0.79,1.06-1.25,1.52
	s-0.97,0.88-1.52,1.25c-0.54,0.36-1.12,0.66-1.72,0.91c-0.601,0.25-1.23,0.45-1.87,0.57
	C154.141,392.29,153.491,392.36,152.831,392.36z"/>
<path d="M359.168,392.36H190.835c-5.522,0-10-4.477-10-10s4.478-10,10-10h168.333c5.522,0,10,4.477,10,10
	S364.69,392.36,359.168,392.36z"/>
<rect x="152.031" y="276.02" style="fill:#0088BB;" width="207.93" height="61"/>
<rect x="152.031" y="215.02" style="fill:#F27187;" width="207.93" height="61"/>
<rect x="152.031" y="154.02" style="fill:#FFDE85;" width="207.93" height="61"/>
<path d="M371.059,0H140.943c-24.399,0-44.249,19.85-44.249,44.249l0,0v423.503l0,0c0,24.399,19.85,44.249,44.249,44.249h230.115
	c24.399,0,44.249-19.85,44.249-44.249l0,0V44.249l0,0C415.308,19.85,395.458,0,371.059,0z M116.694,90.339h278.613v331.322H116.694
	V90.339z M116.694,44.249c0-13.371,10.878-24.249,24.249-24.249h230.115c13.371,0,24.249,10.878,24.249,24.249v26.09H116.694V44.249
	z M395.308,467.751c0,13.371-10.878,24.249-24.249,24.249H140.943c-13.371,0-24.249-10.878-24.249-24.249v-26.09h278.613v26.09
	H395.308z"/>
<path d="M359.967,144.021H152.035c-5.522,0-10,4.477-10,10l0,0v183l0,0c0,5.523,4.478,10,10,10h207.932c5.522,0,10-4.477,10-10l0,0
	v-183l0,0C369.967,148.498,365.489,144.021,359.967,144.021z M162.035,225.021h187.932v41H162.035V225.021z M162.035,164.021
	h187.932v41H162.035V164.021z M349.967,327.021H162.035v-41h187.932V327.021z"/>
<g>
</g>
<g>
</g>
<g>
</g>
<g>
</g>
<g>
</g>
<g>
</g>
<g>
</g>
<g>
</g>
<g>
</g>
<g>
</g>
<g>
</g>
<g>
</g>
<g>
</g>
<g>
</g>
<g>
</g>
</svg>
