<?xml version="1.0" encoding="iso-8859-1"?>
<!-- Generator: Adobe Illustrator 19.0.0, SVG Export Plug-In . SVG Version: 6.00 Build 0)  -->
<svg version="1.1" id="Capa_1" xmlns="http://www.w3.org/2000/svg" xmlns:xlink="http://www.w3.org/1999/xlink" x="0px" y="0px"
	 viewBox="0 0 512 512" style="enable-background:new 0 0 512 512;" xml:space="preserve">
<path style="fill:#E3E3E3;" d="M478.536,69.387h-48.538v197.165H82.003V69.387H33.464C20.506,69.387,10,79.892,10,92.851V417.83h492
	V92.851C502,79.892,491.494,69.387,478.536,69.387z"/>
<polygon style="fill:#54E3E3;" points="429.997,109.419 429.997,266.552 82.003,266.552 82.003,109.419 50.032,109.419 
	50.032,417.83 461.968,417.83 461.968,109.419 "/>
<path style="fill:#5E6E82;" d="M10,417.83v52.435c0,12.959,10.505,23.464,23.464,23.464h445.071
	c12.959,0,23.464-10.505,23.464-23.464V417.83H10z"/>
<path d="M358.41,465.66c-0.65,0-1.311-0.061-1.95-0.19c-0.641-0.13-1.271-0.32-1.87-0.57c-0.61-0.25-1.19-0.56-1.73-0.92
	c-0.55-0.37-1.06-0.79-1.52-1.25s-0.88-0.97-1.24-1.52c-0.359-0.54-0.67-1.12-0.92-1.72c-0.25-0.61-0.439-1.24-0.57-1.87
	c-0.13-0.65-0.199-1.311-0.199-1.96c0-0.65,0.069-1.311,0.199-1.95c0.12-0.641,0.32-1.271,0.57-1.87c0.25-0.61,0.561-1.19,0.92-1.73
	c0.36-0.55,0.78-1.06,1.24-1.52s0.97-0.88,1.52-1.24c0.54-0.359,1.12-0.67,1.73-0.92c0.6-0.25,1.229-0.439,1.87-0.57
	c1.29-0.26,2.62-0.26,3.91,0c0.63,0.131,1.26,0.32,1.87,0.57c0.6,0.25,1.18,0.561,1.72,0.92c0.55,0.36,1.06,0.78,1.52,1.24
	s0.88,0.97,1.25,1.52c0.36,0.54,0.67,1.12,0.92,1.73c0.25,0.6,0.44,1.229,0.57,1.87c0.13,0.64,0.19,1.3,0.19,1.95
	c0,0.649-0.061,1.31-0.19,1.96c-0.13,0.63-0.32,1.26-0.57,1.87c-0.25,0.6-0.56,1.18-0.92,1.72c-0.37,0.55-0.79,1.06-1.25,1.52
	s-0.97,0.88-1.52,1.25c-0.54,0.36-1.12,0.67-1.72,0.92c-0.61,0.25-1.24,0.44-1.87,0.57C359.72,465.6,359.06,465.66,358.41,465.66z"
	/>
<path d="M320.38,465.662H153.588c-5.522,0-10-4.478-10-10s4.478-10,10-10H320.38c5.522,0,10,4.478,10,10
	S325.902,465.662,320.38,465.662z"/>
<rect x="82" y="303.56" style="fill:#FFDD73;" width="94.37" height="72.05"/>
<path d="M176.375,385.61H82.003c-5.522,0-10-4.478-10-10v-72.054c0-5.522,4.478-10,10-10h94.372c5.522,0,10,4.478,10,10v72.054
	C186.375,381.133,181.897,385.61,176.375,385.61z M92.003,365.61h74.372v-52.054H92.003V365.61z"/>
<rect x="208.81" y="303.56" style="fill:#F27187;" width="94.37" height="72.05"/>
<path d="M303.187,385.61h-94.373c-5.522,0-10-4.478-10-10v-72.054c0-5.522,4.478-10,10-10h94.373c5.522,0,10,4.478,10,10v72.054
	C313.187,381.133,308.709,385.61,303.187,385.61z M218.813,365.61h74.373v-52.054h-74.373V365.61z"/>
<rect x="335.62" y="303.56" style="fill:#FFDD73;" width="94.37" height="72.05"/>
<path d="M429.997,385.61h-94.372c-5.522,0-10-4.478-10-10v-72.054c0-5.522,4.478-10,10-10h94.372c5.522,0,10,4.478,10,10v72.054
	C439.997,381.133,435.52,385.61,429.997,385.61z M345.625,365.61h74.372v-52.054h-74.372V365.61z"/>
<rect x="82" y="18.271" style="fill:#E3E3E3;" width="348" height="248.28"/>
<path d="M478.535,59.387h-38.538V18.271c0-5.522-4.478-10-10-10H82.003c-5.522,0-10,4.478-10,10v41.115H33.465
	C15.013,59.387,0,74.398,0,92.851v377.414l0,0c0,18.452,15.013,33.464,33.465,33.464h445.07c18.452,0,33.465-15.012,33.465-33.464
	V417.83V92.851C512,74.398,496.987,59.387,478.535,59.387z M478.535,79.387c7.425,0,13.465,6.04,13.465,13.464V407.83h-20.032
	V109.419c0-5.522-4.478-10-10-10h-21.971V79.387H478.535z M82.003,276.552h347.994c5.522,0,10-4.478,10-10V119.419h11.971V407.83
	H60.032V119.419h11.971v147.133C72.003,272.074,76.48,276.552,82.003,276.552z M92.003,28.271h327.994l0,0v228.28l0,0H92.003l0,0
	V28.271L92.003,28.271z M20,92.851c0-7.424,6.04-13.464,13.465-13.464h38.538v20.032H50.032c-5.522,0-10,4.478-10,10V407.83H20
	V92.851z M492,470.265c0,7.424-6.04,13.464-13.465,13.464H33.465c-7.425,0-13.465-6.04-13.465-13.464V427.83l0,0h441.968H492
	V470.265z"/>
<rect x="121.38" y="175.94" style="fill:#0088BB;" width="42.564" height="45.643"/>
<path d="M163.946,231.584h-42.563c-5.522,0-10-4.478-10-10v-45.643c0-5.522,4.478-10,10-10h42.563c5.522,0,10,4.478,10,10v45.643
	C173.946,227.106,169.469,231.584,163.946,231.584z M131.383,211.584h22.563v-25.643h-22.563V211.584z"/>
<rect x="348.05" y="118.43" style="fill:#5E6E82;" width="42.564" height="103.16"/>
<path d="M390.617,231.584h-42.563c-5.522,0-10-4.478-10-10V118.427c0-5.522,4.478-10,10-10h42.563c5.522,0,10,4.478,10,10v103.157
	C400.617,227.106,396.14,231.584,390.617,231.584z M358.054,211.584h22.563v-83.157h-22.563V211.584z"/>
<rect x="195.94" y="137.92" style="fill:#5E6E82;" width="44.569" height="83.67"/>
<path d="M240.506,231.589h-44.569c-5.522,0-10-4.478-10-10v-83.67c0-5.522,4.478-10,10-10h44.569c5.522,0,10,4.478,10,10v83.67
	C250.506,227.111,246.028,231.589,240.506,231.589z M205.937,211.589h24.569v-63.67h-24.569V211.589z"/>
<rect x="272.5" y="159.95" style="fill:#0088BB;" width="42.564" height="61.64"/>
<path d="M315.061,231.584h-42.563c-5.522,0-10-4.478-10-10v-61.639c0-5.522,4.478-10,10-10h42.563c5.522,0,10,4.478,10,10v61.639
	C325.061,227.106,320.583,231.584,315.061,231.584z M282.497,211.584h22.563v-41.639h-22.563V211.584z"/>
<path d="M293.775,134.432c-2.055,0-4.119-0.631-5.886-1.917l-69.045-50.302l-44.03,39.138c-4.127,3.67-10.45,3.297-14.117-0.83
	c-3.67-4.128-3.298-10.448,0.83-14.117l50.051-44.49c3.515-3.126,8.73-3.378,12.532-0.609l68.621,49.993l69.51-69.975
	c3.895-3.917,10.225-3.938,14.143-0.047c3.918,3.893,3.938,10.224,0.047,14.143l-75.558,76.062
	C298.934,133.432,296.362,134.432,293.775,134.432z"/>
<path d="M142.66,146.55c-0.65,0-1.311-0.07-1.95-0.19c-0.641-0.13-1.271-0.329-1.87-0.579s-1.19-0.561-1.73-0.921
	c-0.55-0.359-1.06-0.779-1.52-1.239c-1.86-1.86-2.93-4.44-2.93-7.07c0-0.65,0.069-1.31,0.199-1.95c0.131-0.64,0.32-1.27,0.57-1.87
	c0.25-0.609,0.561-1.189,0.92-1.729c0.36-0.55,0.78-1.061,1.24-1.521s0.97-0.88,1.52-1.25c0.54-0.359,1.131-0.67,1.73-0.92
	s1.229-0.439,1.87-0.569c1.29-0.261,2.62-0.261,3.91,0c0.64,0.13,1.27,0.319,1.87,0.569c0.6,0.25,1.18,0.561,1.72,0.92
	c0.55,0.37,1.06,0.79,1.52,1.25c0.471,0.46,0.88,0.971,1.25,1.521c0.36,0.54,0.67,1.12,0.92,1.729c0.25,0.601,0.44,1.23,0.57,1.87
	c0.13,0.641,0.19,1.3,0.19,1.95c0,2.63-1.061,5.21-2.931,7.07c-0.46,0.46-0.97,0.88-1.52,1.239c-0.54,0.36-1.12,0.671-1.72,0.921
	c-0.601,0.25-1.23,0.449-1.87,0.579C143.97,146.479,143.319,146.55,142.66,146.55z"/>
<g>
</g>
<g>
</g>
<g>
</g>
<g>
</g>
<g>
</g>
<g>
</g>
<g>
</g>
<g>
</g>
<g>
</g>
<g>
</g>
<g>
</g>
<g>
</g>
<g>
</g>
<g>
</g>
<g>
</g>
</svg>
